<svg version="1.1" id="Layer_1" xmlns="http://www.w3.org/2000/svg" x="0px" y="0px" viewBox="0 0 466.5 249.3" style="enable-background:new 0 0 466.5 249.3;" xmlns:xlink="http://www.w3.org/1999/xlink" xml:space="preserve" class="logo">
	 <title>Women Who Code</title>

<g>
	<path id="path2989_9_" d="M39.9,244.2C12.3,231.6-2,202.1,0.2,162.1C2.7,117.4,28.9,88.2,67,87.5
		C93.1,87,94.1,88,94.1,113.4c0,12.1-0.9,22-2.1,22c-1.1,0-4.5-1.9-7.5-4.2c-10.9-8.3-26.7-2.7-33.7,11.9c-7.1,15-4.7,48,4.2,57.5
		c7.9,8.4,23.1,9.6,33.1,2.7c3.5-2.5,6.6-4,7-3.5c0.3,0.5-0.1,10.9-0.9,23.1c-1.4,20.7-2,22.2-8.5,24
		C72.6,250.5,51.1,249.3,39.9,244.2L39.9,244.2z M143.7,243.9C114,227.7,99,185.7,107.8,143.3c13.4-64.5,88.4-76.6,114.3-18.4
		c5.4,12.2,6.6,19.5,6.6,42.6c0.1,26-0.5,29.1-9.2,46.7c-12.1,24.5-24.5,33.3-48.7,34.5C158,249.2,151.4,248.1,143.7,243.9
		L143.7,243.9z M179.8,195.2c4.9-14.6,2.7-51.7-3.7-61.4c-11.3-17.2-22.4,0.4-22.2,35c0.2,29.8,3.9,39.6,14.4,38.4
		C174.6,206.4,176.8,204.1,179.8,195.2z M247.6,168.1l0.7-81.3l26.6,0.3c29.3,0.4,43.8,3.9,57.4,14c35.3,26.4,37.3,102.1,3.4,132.7
		c-13.8,12.4-25.6,15.5-60.4,15.5h-28.5L247.6,168.1L247.6,168.1z M307.3,200.1c7.6-11.6,7-50.4-0.9-61.1
		c-12.1-16.2-13.7-12.7-13.6,29.6c0,35.1,0.5,39,4.8,39C300.3,207.7,304.6,204.3,307.3,200.1L307.3,200.1z M376,245.8
		c-0.7-1.9-1-38.5-0.6-81.3l0.7-77.8h40.3h40.3l0.8,20.2l0.8,20.1h-18.2H422v9.7v9.7h16.7h16.7V166v19.5h-16.7H422v11.8V209h17.4
		h17.4l0.8,20.1l0.8,20.1h-40.5C387.8,249.3,377,248.4,376,245.8L376,245.8z"></path>
	<g>
		<path d="M13,66.8L0.7,10.8h9.7l9,41l8.5-41h8.6l8.1,40.8l9.5-40.8H61L48.1,66.8h-9.8l-7.6-38.5l-8,38.5H13z"></path>
		<path d="M89.4,68.2c-7.5,0-13.5-2.7-17.9-8c-4.5-5.4-6.7-12.5-6.7-21.4c0-9,2.3-16.2,6.8-21.5c4.5-5.3,10.6-8,18.2-8
			c7.6,0,13.7,2.7,18.2,8c4.5,5.3,6.8,12.4,6.8,21.4c0,9.1-2.3,16.4-6.8,21.6C103.4,65.6,97.2,68.2,89.4,68.2z M89.5,60.5
			c4.4,0,7.9-2,10.4-5.9c2.6-3.9,3.8-9.3,3.8-16c0-6.5-1.3-11.7-3.9-15.7S94,17,89.7,17c-4.3,0-7.7,2-10.3,5.9
			c-2.6,3.9-3.8,9.2-3.8,15.8c0,6.5,1.3,11.8,3.8,15.8C82,58.5,85.4,60.5,89.5,60.5z"></path>
		<path d="M123.9,66.8V10.8h13.6l11.9,39.4l12.2-39.4h11.9v56.1h-9.5V24.5l-12,38.6h-8.3L132,23.9v42.9H123.9z"></path>
		<path d="M185.8,66.8V10.8h30.8v7.7h-20.5v15.6H213v7.5h-16.8v17.3h22.1v8H185.8z"></path>
		<path d="M226.8,66.8V10.8h9l22.8,38.3V10.8h8.2v56.1h-9.2L235,28.5v38.3H226.8z"></path>
		<path d="M308.5,66.8l-12.3-56.1h9.7l9,41l8.5-41h8.6l8.1,40.8l9.5-40.8h7.1l-12.9,56.1h-9.8l-7.6-38.5l-8,38.5H308.5z
			"></path>
		<path d="M363.3,66.8V10.8h10.3v22.8H394V10.8h10.3v56.1H394V41.3h-20.4v25.6H363.3z"></path>
		<path d="M438.2,68.2c-7.5,0-13.5-2.7-17.9-8c-4.5-5.4-6.7-12.5-6.7-21.4c0-9,2.3-16.2,6.8-21.5c4.5-5.3,10.6-8,18.2-8
			c7.6,0,13.7,2.7,18.2,8c4.5,5.3,6.8,12.4,6.8,21.4c0,9.1-2.3,16.4-6.8,21.6C452.2,65.6,446,68.2,438.2,68.2z M438.3,60.5
			c4.4,0,7.9-2,10.4-5.9c2.6-3.9,3.8-9.3,3.8-16c0-6.5-1.3-11.7-3.9-15.7c-2.6-3.9-6-5.9-10.2-5.9c-4.3,0-7.7,2-10.3,5.9
			c-2.6,3.9-3.8,9.2-3.8,15.8c0,6.5,1.3,11.8,3.8,15.8C430.8,58.5,434.1,60.5,438.3,60.5z"></path>
	</g>
</g>
</svg>